/* XPM */
static char *bitcoin16_xpm[] = {
/* width height num_colors chars_per_pixel */
"    16    16      256            2",
/* colors */
"`` c #ffffff",
"`. c #fdfefc",
"`# c #f8fbed",
"`a c #eff6d6",
"`b c #e5f1ba",
"`c c #ddeba4",
"`d c #d7e791",
"`e c #cfe37f",
"`f c #d1e384",
"`g c #dceaa2",
"`h c #f6fae8",
"`i c #fbfdf6",
"`j c #fafcf2",
"`k c #f6f9e7",
"`l c #eff7d5",
"`m c #edf5cf",
"`n c #eaf2c7",
"`o c #e4eeb3",
"`p c #d1e485",
"`q c #cae06d",
"`r c #c2db58",
"`s c #c9df6c",
"`t c #f2f7dd",
"`u c #f6f9e8",
"`v c #f6fae9",
"`w c #fbfdf7",
"`x c #fcfdf6",
"`y c #fdfdf9",
"`z c #fdfefb",
"`A c #fefefd",
"`B c #fcfdf8",
"`C c #f5f9e4",
"`D c #d6e792",
"`E c #c2db59",
"`F c #bbd744",
"`G c #cce174",
"`H c #f4f8e2",
"`I c #ecf4cb",
"`J c #f4f9e3",
"`K c #fdfdfa",
"`L c #fdfefa",
"`M c #f9fbed",
"`N c #f2f7db",
"`O c #f8fbec",
"`P c #c9df6b",
"`Q c #b9d643",
"`R c #b5d334",
"`S c #eaf2c6",
"`T c #f9fbef",
"`U c #e3eeb4",
"`V c #e8f2c1",
"`W c #f4f8e3",
"`X c #e7f1bf",
"`Y c #e2eeaf",
"`Z c #dbea9f",
"`0 c #f1f7d8",
"`1 c #cae071",
"`2 c #b7d63e",
"`3 c #b0d129",
"`4 c #e3eeb2",
"`5 c #e9f2c3",
"`6 c #dae99c",
"`7 c #f3f8e0",
"`8 c #f7fae9",
".` c #dfecaa",
".. c #ddeba5",
".# c #f7faec",
".a c #edf4cd",
".b c #e6f0bc",
".c c #bed950",
".d c #b5d335",
".e c #b0d12a",
".f c #e6f2bf",
".g c #d5e690",
".h c #d8e995",
".i c #d4e78b",
".j c #e8f1c1",
".k c #ebf3ca",
".l c #c6df66",
".m c #b8d53e",
".n c #b1d12c",
".o c #b9db4a",
".p c #faf7e9",
".q c #cae070",
".r c #fbfdf5",
".s c #d9e999",
".t c #d0e480",
".u c #cde279",
".v c #f2f7de",
".w c #d5e68c",
".x c #c0da53",
".y c #b9d743",
".z c #b3d231",
".A c #a9d422",
".B c #dedc8d",
".C c #fef9f3",
".D c #c4dc60",
".E c #e3eeb3",
".F c #eff6d5",
".G c #cae06e",
".H c #c8df6a",
".I c #d4e68c",
".J c #f1f7db",
".K c #c0d953",
".L c #bad642",
".M c #b3d332",
".N c #aed024",
".O c #c5e36f",
".P c #fbfaf1",
".Q c #fdcf9e",
".R c #c5dd61",
".S c #dbe99e",
".T c #d9e897",
".U c #c0db54",
".V c #e6f0bd",
".W c #dfecab",
".X c #b7d53b",
".Y c #b2d22f",
".Z c #a8d524",
".0 c #cce57c",
".1 c #f9fcf1",
".2 c #fbd18c",
".3 c #d1e381",
".4 c #cde178",
".5 c #f9fbf0",
".6 c #bfda55",
".7 c #b9d641",
".8 c #bdd84c",
"#` c #eef5d1",
"#. c #bed951",
"## c #add227",
"#a c #c0df60",
"#b c #f2e8be",
"#c c #fefdf9",
"#d c #f6d061",
"#e c #eaf3c7",
"#f c #bed84f",
"#g c #b1d12a",
"#h c #c9df6d",
"#i c #edf4cf",
"#j c #cce57f",
"#k c #edefc3",
"#l c #fdf4e7",
"#m c #fefcfa",
"#n c #fefefc",
"#o c #f9e598",
"#p c #f3d01f",
"#q c #d1e482",
"#r c #d8e896",
"#s c #c7de67",
"#t c #adcf1f",
"#u c #dae99b",
"#v c #fefcf9",
"#w c #fac681",
"#x c #fcebc2",
"#y c #fdf6dd",
"#z c #f7de77",
"#A c #f3d51f",
"#B c #f5e94a",
"#C c #f7faea",
"#D c #cce175",
"#E c #adcf20",
"#F c #b6d439",
"#G c #f0f6d7",
"#H c #fbd18d",
"#I c #f4b426",
"#J c #f6d058",
"#K c #f4d232",
"#L c #f3dd1f",
"#M c #f4eb3a",
"#N c #fcfbcd",
"#O c #cfe37e",
"#P c #c2db5a",
"#Q c #fde1b0",
"#R c #f3b923",
"#S c #f3c61e",
"#T c #f3e320",
"#U c #f6f15a",
"#V c #fcfbd1",
"#W c #e4efb8",
"#X c #e4f1bc",
"#Y c #fdf3d9",
"#Z c #f5c943",
"#0 c #f3cf2b",
"#1 c #f4de32",
"#2 c #f5ed52",
"#3 c #f9f8a1",
"#4 c #fefdf1",
"#5 c #000000",
"#6 c #000000",
"#7 c #000000",
"#8 c #000000",
"a` c #000000",
"a. c #000000",
"a# c #000000",
"aa c #000000",
"ab c #000000",
"ac c #000000",
"ad c #000000",
"ae c #000000",
"af c #000000",
"ag c #000000",
"ah c #000000",
"ai c #000000",
"aj c #000000",
"ak c #000000",
"al c #000000",
"am c #000000",
"an c #000000",
"ao c #000000",
"ap c #000000",
"aq c #000000",
"ar c #000000",
"as c #000000",
"at c #000000",
"au c #000000",
"av c #000000",
"aw c #000000",
"ax c #000000",
"ay c #000000",
"az c #000000",
"aA c #000000",
"aB c #000000",
"aC c #000000",
"aD c #000000",
"aE c #000000",
"aF c #000000",
"aG c #000000",
"aH c #000000",
"aI c #000000",
"aJ c #000000",
"aK c #000000",
"aL c #000000",
"aM c #000000",
"aN c #000000",
"aO c #000000",
"aP c #000000",
"aQ c #000000",
"aR c #000000",
"aS c #000000",
"aT c #000000",
"aU c #000000",
"aV c #000000",
"aW c #000000",
"aX c #000000",
"aY c #000000",
"aZ c #000000",
"a0 c #000000",
"a1 c #000000",
"a2 c #000000",
"a3 c #000000",
"a4 c #000000",
"a5 c #000000",
"a6 c #000000",
"a7 c #000000",
"a8 c #000000",
/* pixels */
"`````````.`#`a`b`c`d`e`f`g`h````",
"```````i`j`k`l`m`n`o`p`q`r`s`t``",
"`````u`v`w`x`y`z`A`B`C`D`E`F`G`y",
"```H`I`J`K`L`B`M`N`H```O`P`Q`R`S",
"`T`U`V`B```W`X`Y`Z`0`````1`2`3`4",
"`5`6`7`````8.``Z...#.a.b.c.d.e.f",
".g`c`z````.a.h.i.j.k.l`E.m.n.o.p",
".q`U````.r.s.t.u.v.w.x.y.z.A.B.C",
".D.E````.F.G.H.I.J.K.L.M.N.O.P.Q",
".R.S````.T`r.U.V.W.X.Y.Z.0.1``.2",
".3.4``.5.6.7.8#`#.###a#b`A``#c#d",
"#e#f`T`U.n#g#h#i#j#k#l#m``#n#o#p",
"`L#q#r#s#t#t#u````#v#w#x#y#z#A#B",
"``#C#D#E#E#F#G````#H#I#J#K#L#M#N",
"`````v#O#E#P`.``#Q#R#S#A#T#U#V``",
"```````A#W#X``#Y#Z#0#1#2#3#4````"
};
