/* XPM */
static char *bitcoin64_xpm[] = {
/* width height num_colors chars_per_pixel */
"    64    64      256            2",
/* colors */
"`` c #f4921c",
"`. c #acce24",
"`# c #d4e694",
"`a c #f4ca1c",
"`b c #dceea4",
"`c c #f4e224",
"`d c #ecf2cc",
"`e c #f4ae1c",
"`f c #c4da5c",
"`g c #f4b65c",
"`h c #f4ce5c",
"`i c #f4fadc",
"`j c #f4be1c",
"`k c #fcd6a4",
"`l c #fcee94",
"`m c #f4ea64",
"`n c #f4d61c",
"`o c #cce67c",
"`p c #bcd63c",
"`q c #fce6c4",
"`r c #f4ee24",
"`s c #f4a21c",
"`t c #fceed4",
"`u c #f4ae34",
"`v c #cce274",
"`w c #f4ca3c",
"`x c #eceebc",
"`y c #f4faec",
"`z c #f4d66c",
"`A c #f4c234",
"`B c #fce294",
"`C c #fceeb4",
"`D c #acd624",
"`E c #f4a24c",
"`F c #f4d21c",
"`G c #e4eebc",
"`H c #c4e264",
"`I c #f4d634",
"`J c #f4ee44",
"`K c #fcf6e4",
"`L c #f4b61c",
"`M c #f4c65c",
"`N c #f4f67c",
"`O c #bcd64c",
"`P c #f4aa1c",
"`Q c #dce694",
"`R c #f4ca2c",
"`S c #f4e24c",
"`T c #ccde64",
"`U c #f4c61c",
"`V c #fcf2e4",
"`W c #f4b63c",
"`X c #fcfaec",
"`Y c #f4de7c",
"`Z c #fcfab4",
"`0 c #b4d224",
"`1 c #e4eeac",
"`2 c #f4f6d4",
"`3 c #fcb66c",
"`4 c #fcfad4",
"`5 c #fcde9c",
"`6 c #f4de24",
"`7 c #d4e67c",
"`8 c #fce6cc",
".` c #f4ee34",
".. c #fce2a4",
".# c #fcf27c",
".a c #fcfefc",
".b c #f49a1c",
".c c #f4ce1c",
".d c #f4ea24",
".e c #c4de6c",
".f c #fcca74",
".g c #f4c21c",
".h c #fcf694",
".i c #f4d62c",
".j c #f4a62c",
".k c #fcf2d4",
".l c #d4e27c",
".m c #f4c244",
".n c #b4d634",
".o c #f4ba2c",
".p c #c4da54",
".q c #dceaa4",
".r c #fcfeec",
".s c #d4e68c",
".t c #fcf28c",
".u c #f4e624",
".v c #ecf6cc",
".w c #f4b21c",
".x c #c4de5c",
".y c #f4be5c",
".z c #fcdaa4",
".A c #f4da1c",
".B c #bcda44",
".C c #fceabc",
".D c #f4b244",
".E c #f4d24c",
".F c #ecf2bc",
".G c #f4d67c",
".H c #f4c634",
".I c #fcf2c4",
".J c #e4f2bc",
".K c #f4de3c",
".L c #f4f254",
".M c #f4ba1c",
".N c #bcda4c",
".O c #f4aa34",
".P c #dcea94",
".Q c #f4ba44",
".R c #fcde7c",
".S c #fcfac4",
".T c #b4d234",
".U c #e4f2b4",
".V c #fcfedc",
".W c #f4f23c",
".X c #fce6ac",
".Y c #fcd27c",
".Z c #fcf6ac",
".0 c #f4922c",
".1 c #acd224",
".2 c #d4ea94",
".3 c #f4ca24",
".4 c #dceeac",
".5 c #f4ba54",
".6 c #f4fae4",
".7 c #f4be24",
".8 c #f4ee74",
"#` c #bcd644",
"#. c #fcc684",
"## c #f4aa54",
"#a c #fcdeb4",
"#b c #fcba7c",
"#c c #cce26c",
"#d c #f4ca4c",
"#e c #f4d22c",
"#f c #fce69c",
"#g c #f4ba34",
"#h c #f49e24",
"#i c #f4a61c",
"#j c #f4b234",
"#k c #f4da34",
"#l c #f4f244",
"#m c #f4ce2c",
"#n c #d4ea8c",
"#o c #fcf68c",
"#p c #fcfaac",
"#q c #f4ee2c",
"#r c #fceedc",
"#s c #cce27c",
"#t c #f4d674",
"#u c #f4c23c",
"#v c #fceebc",
"#w c #acd62c",
"#x c #fcf6ec",
"#y c #f4b624",
"#z c #f4aa24",
"#A c #f4e254",
"#B c #ccde6c",
"#C c #f4c624",
"#D c #fcf2ec",
"#E c #fcfaf4",
"#F c #fcfabc",
"#G c #b4d22c",
"#H c #e4eeb4",
"#I c #f4f6dc",
"#J c #fcfadc",
"#K c #d4e684",
"#L c #fce6d4",
"#M c #f4ee3c",
"#N c #fce2ac",
"#O c #fcf284",
"#P c #f4ce24",
"#Q c #fcca7c",
"#R c #f4c224",
"#S c #f4a634",
"#T c #fcf2dc",
"#U c #d4e284",
"#V c #b4d63c",
"#W c #fcfef4",
"#X c #f4e62c",
"#Y c #ecf6d4",
"#Z c #f4b224",
"#0 c #c4de64",
"#1 c #fcdaac",
"#2 c #f4da24",
"#3 c #fceac4",
"#4 c #ecf2c4",
"#5 c #e4f2c4",
"#6 c #bcda54",
"#7 c #dcea9c",
"#8 c #fcde84",
"a` c #000000",
"a. c #000000",
"a# c #000000",
"aa c #000000",
"ab c #000000",
"ac c #000000",
"ad c #000000",
"ae c #000000",
"af c #000000",
"ag c #000000",
"ah c #000000",
"ai c #000000",
"aj c #000000",
"ak c #000000",
"al c #000000",
"am c #000000",
"an c #000000",
"ao c #000000",
"ap c #000000",
"aq c #000000",
"ar c #000000",
"as c #000000",
"at c #000000",
"au c #000000",
"av c #000000",
"aw c #000000",
"ax c #000000",
"ay c #000000",
"az c #000000",
"aA c #000000",
"aB c #000000",
"aC c #000000",
"aD c #000000",
"aE c #000000",
"aF c #000000",
"aG c #000000",
"aH c #000000",
"aI c #000000",
"aJ c #000000",
"aK c #000000",
"aL c #000000",
"aM c #000000",
"aN c #000000",
"aO c #000000",
"aP c #000000",
"aQ c #000000",
"aR c #000000",
"aS c #000000",
"aT c #000000",
"aU c #000000",
"aV c #000000",
"aW c #000000",
"aX c #000000",
"aY c #000000",
"aZ c #000000",
"a0 c #000000",
"a1 c #000000",
"a2 c #000000",
"a3 c #000000",
"a4 c #000000",
"a5 c #000000",
"a6 c #000000",
"a7 c #000000",
"a8 c #000000",
/* pixels */
".a.a.a.a.a.a.a.a.a.a.a.a.a.a.a.a.a.a.a.a.a.a.a.a.a.a.a.a.r.6#I`d.J#H.4.q#7#7#7#7`b`G`d.6`X.a.a.a.a.a.a.a.a.a.a.a.a.a.a.a.a.a.a.a",
".a.a.a.a.a.a.a.a.a.a.a.a.a.a.a.a.a.a.a.a.a.a.a.a#W`y`2#4#H#H.4.q.q#7#7`Q.s.s#K#s#s`v`v#B`o`1#Y#E.a.a.a.a.a.a.a.a.a.a.a.a.a.a.a.a",
".a.a.a.a.a.a.a.a.a.a.a.a.a.a.a.a.a.a.a.a.a.a`X`2`d#4#5.J#H#H`1.4`1#7#7.2`#.s.s#K#s#s`v#B.e#0.x#K#4.r.a.a.a.a.a.a.a.a.a.a.a.a.a.a",
".a.a.a.a.a.a.a.a.a.a.a.a.a.a.a.a.a.a.a.a`X#I#Y.v`d#4#4.J.J#H#H.4.q.q.q#7`Q.s.s#s#K`v`v`v#B#0#0`f.p`o#Y.a.a.a.a.a.a.a.a.a.a.a.a.a",
".a.a.a.a.a.a.a.a.a.a.a.a.a.a.a.a.a.a#E.6`i#I#Y`2#Y.v#4#5.F.J#H#H.4`1#7.2#7`#.s.s.l#s`v`v#B#0#0.x.p#6.p`b#E.a.a.a.a.a.a.a.a.a.a.a",
".a.a.a.a.a.a.a.a.a.a.a.a.a.a.a.a#W`X.6.6.6#I#I`2#Y.v`d#4#5.J#H#H.4.q.q#7`Q`#.s#K#K#s#s#c#B#0`T`f#6.p.N#`#K`y.a.a.a.a.a.a.a.a.a.a",
".a.a.a.a.a.a.a.a.a.a.a.a.a.a.a`X`X`y.r`X`y.6.6#I`2#Y.v#4#4.J`G#H`1.q.q#7#7`#.s.s#U`o#s`v#B.e#0.x`f#6.N.N#``v`X.a.a.a.a.a.a.a.a.a",
".a.a.a.a.a.a.a.a.a.a.a.a.a#W`X#W#W#W#E`y`X.6.6#I#Y`2.v`d#5`d.v#4`d#4#4.J#H#7.s.s#U.l#s`v#c.e#0`f#6.p.N`O#`#V#s#W.a.a.a.a.a.a.a.a",
".a.a.a.a.a.a.a.a.a.a.a.a`X`y.r#E#W.a.a#W.r`y.6`i#I.6.6`y`X#W#W.a.a.a.a#W#E`i#4.q#K`o#s`v#B#c#0.x`f#6.N`O.B`p.T.P.a.a.a.a.a.a.a.a",
".a.a.a.a.a.a.a.a.a.a#W.6.6`y`X`y.a.a.a#W`y`X`y`X#W#E.a.a.a.a.a.a.a.a.a.a.a.a.a#W#Y.q.l`v#B.e#0.x`f.p.N`O#`#V.T#``G.a.a.a.a.a.a.a",
".a.a.a.a.a.a.a.a.a.r#I#I.6`X`y#W.a.a#W#E#W#W.a.a.a.a.a.a.a.a.a.a.a.a.a.a.a.a.a.a.a#W`d.s#c.e#0.x`f#6.N.N#`#V#V.T.p`y.a.a.a.a.a.a",
".a.a.a.a.a.a.a.a`X#Y#Y.6.6.6`X#W.r#W#E#W.a.a.a.a.a.a.a.a.a.a.a.a.a.a.a.a.a.a.a.a.a.a.a.6#7`T#0.x.p#6.N`O#``p.T.n#G.q.a.a.a.a.a.a",
".a.a.a.a.a.a.a`X#Y#Y`2#I#I.6.6`y`X`y.a.a.a.a.a.a.a.a.a.a.a.a.a.a.a.a.a.a.a.a.a.a.a.a.a.a`X.2#0`f`f#6.N#`.B#V.T.T#G#``i.a.a.a.a.a",
".a.a.a.a.a.a#W#4`d.v#Y#Y`i#I.6.6#E.a.a.a.a.a.a.a.a.a.a.a.a.a.a.a.a.a.a.a.a.a.a.a.a.a.a.a.a.6#s.x.p#6.N#`#``p#V.T#G`..q.a.a.a.a.a",
".a.a.a.a.a#W#4#5#4.v.v`2#Y#I.6#W.a.a.a.a.a.a.a.a.a.a.a.a.a.a.a.a.a`X`i`d#4#W.a.a.a.a.a.a.a.a.F`f#6.p.N.B#V#V.T.T#G.1`f`y.a.a.a.a",
".a.a.a.a.a.v.J.J#4`d`d.v#Y#I#W.a.a.a.a.a.a.a.a.a.a.a#W`X.6`2`d.J#H.4.q#7.4#E.a.a.a.a.a.a.a.a.6.e.x.N`O#`#``p.T.T.1#G.T`i.a.a.a.a",
".a.a.a.a#I#H`G`G.F#5#4.v#Y#E.a.a.a.a.a.a#W`X`y`i`2`d#4#5`G#H`1.4`1#7#7`Q.v.a.a.a.a.a.a.a.a.a`X.l#6.N`O#`#V.T.T.T#G`.`.#Y.a.a.a.a",
".a.a.a#W#H`1#H#H.J.F#5`d`X.a.a.a.a.a.a#I#Y`d.v#4#5#4.J#H.U`1.4.q#7#7#7`#`X.a.a.a.a.a.a.a.a.a`X`o.p.N.B#`#`#V.n#G.1`.`0#4.a.a.a.a",
".a.a.a`d.4`1#H#H#H.J.F.6.a.a.a.a.a.a.a.a`2#4#4#5.F`G.U#H`1.4`1.q#7#7`#.J#W.a.a.a.a.a.a.a.a.a`y#B.N.N#`.B#V`p#G#G#G`.`.#4.a.a.a.a",
".a.a`X.q.q`1.4`1#H#H#Y.a.a.a.a.a.a.a.a.a.a#I.J.J`G.U#H`1.4`1.q#7#7`Q`##Y.a.a.a.a.a.a.a.a.a.a.v.p.N`O#`#V`p.T.T`.`.`..1#4.a.a.a.a",
".a.a.v#7#7.q`b`1.4#4#E.a.a.a.a.a.a.a.a.a.a.a#I.U#H#H`1`1.q.q.q#7`#.2#7`X.a.a.a.a.a.a.a.a.a.a`Q#6.N.B#`#V#V.T#G#G.1`.`0#Y.a.a.a.a",
".a#E#7#7#7#7.q.q`1#I.a.a.a.a.a.a.a.a.a.a.a.a`X#H`1`1.4.q`b.q#7#7.P`#`G#W.a.a`2.6.a.a.a.a.a#I.p#6`O#`#`#V.T.T#G`.`0`..T.6.a.a.a.a",
".a`2`#`#.P`Q.q.q#5#W.a.a.a.a.a.a.a.a.a.a.a.a#4.4`1.q`b.q#7#7.P`#`#.s`2.a.a.a`#`v#4.a.a.a#W#U#6.N.B#`#V`p.n#G#G`.`.`..x.6.a.a.a.a",
".a#H.s.s.P.2#7.q`i.a.a.a.a.a.a.a.a.a.a.a.a#W`1.q`b.q.q#7#7.P`#`Q#n#7`X.a.a.6.l`v#B`b#W#W.q.p.N.N#`.B#V.T.n#G.1`0`.`.`7#E.a.a.a.a",
"`X`##K.s.s`Q.2`x.a.a.a.a.a.a.a.a.a.a.a.a.a#I`b.q#7#7#7.P.P`#.s.s#K`G.a.a.a.U#B#B.e`T.s.q.p.N.N.B#`#V`p.T#G#G`.`.`.`.`1.a.a.a.a.a",
"`i`o#U#K.s.s.2#I.a.a.a.a.a.a.a.a.a.a.a.a.a#H#7#7#7.P.P`#`##n.s#K#K#I.a.a.a.s`v.e#0.x`f.x#6.p#`#`#`#V.T.n#G.1`0`..1#G#I.a.a.a.a.a",
"`d#s#s#K#K.s`1#W.a.a.a.a.a.a.a.a.a.a.a.a.r#7.2.P`#.2.s.s.s#K.s#U#7`y.a.a#I`v.e`T.x.x`f#6.p.B.N#V`p.n.T#G#G`.`.`.`0`v#W.a.a.a.a.a",
"`1`v#s#s#U#s`d.a.a.a.a.a.a.a.a.a.a.a.a.a`d`#.2`#.s.s.s.s#K#K#U`o`G.a.a.a`b#B#0.x.x`f.p.N.N#`#`#V`p.T.n#G.1`.`.`..1`x.a.a.a.a.a.a",
"#7`v`v#s#s.2#I.a.a.a.a.a.a.a.a.a.a.a.a.a`b.s`Q#K.s#K#K#K#U#s#s.l#Y.a.a#W#K#0#0`f`f#6#6.N#`#`#`#V.T.n#G.1#G`..1.1`H#x.a.a.a.a.a.a",
".s.e`v`v`v#7#W.a.a.a.a.a.a.a.a.a.a.a.a.6#K#K#U#K#K#K#s`o#s.l`v#7`X.a.a`d#c.x`f.x#6.p.N#`.B#`#V.n.T.T#G`.`.`.`.`D.F`V#x.a.a.a.a.a",
".l.e#B#c#B.q.a.a.a.a.a.a.a.a.a.a.a.a.a.J#K#K#s#K#s`o.l#s`v`v`v.U.a.a.a#7.x`f`f#6.p.N#``O#`#V`p.T.T#G.1`..1`0`.`o#E`V#b#L.a.a.a.a",
"`v#0`T.e#B`1.a.a.a.a.a.a.a.a.a.a.a.a.a.s.l#s#s#s#s`v#s`v#c#c#s#Y.a.a`X#s`f#6#6.N.N#`#`.B#V.T.n.T#G.1`0`.`.`.`p#Y.a.a#b`E#r.a.a.a",
"`v`f#0#0.e#H.a.a.a.a.a.a.a.a.a.a.a.a`2#s`v`v`v`v`v#B`v#B.e.e`Q#W.a.a.U`f#6.p.N.N`O#`#`#V.T`p#G#G.1.1`.`.`.`0#H.a.a.a#D.0###E.a.a",
"`v`f.x`f#0`G.a.a.a.a.a.a.a.a.a.a.a.a.q`v#B`v#B`v#B#B.e`T#0#0#H.a.a.a.s.p#6`O.N#`#`#V`p#V.T.T#G.1#G`.`.`.`0.P.a.a.a.a.a`3``#..a.a",
"#s.p#6`f#0`x.a.a.a.a.a.a.a.a.a.a.a#W#s#B#B.e#B#0#B#0#0#0#0`v#I.a.a#I.e#6`O.N#`#`#`#V.T.T.n#G.1`0`.`.`.`.`7#E.a.a.a.a.a#1#h#h`8.a",
".s.N.p.p.x#H.a.a.a.a.a.a.a.a.a.a.a`d`T#0#0`T#0#0#0#0.x`f.x.s.a.a.a`1`O.p#`#`#`#V.T`p.T.T#G`0`.`.`..1`.`7.r.a.a.a.a.a.a#r#S#h.y#W",
".q`O.N#6.p#H.a.a.a.a.a.a.a.a.a.a.a#n#0#0#0.x`f#0`f.x`f.p`f#H.a.a#W#s`O#`#`#V`p.T`p.T#G.1#G`.`..1`.`0#K#E.a.a.a.a.a.a.a#x`u#i`P#3",
".F#``O.N`O`b.a.a.a.a.a.a.a.a.a.a`X#B`f`f`f`f.p.p.p#6.p#6#B`i.a.a.v`f#`#V#V`p.T.T.T.1.T.1`.`.`.`0`0.q.a.a.a.a.a.a.a.a.a#W.D`P`e.Y",
"#Y#`#V#``O`#.a.a.a.a.a.a.a.a.a.a#H#6.p#6.p#6#6#6#6.p.N`O.s.a.a.a#7#V`p#V.T.T#V.T#G.1#G`.`0`.`..N`d.a.a.a.a.a.a.a.a.a.a`X`W.w`L#u",
"`y`f#V#`#``7.a.a.a.a.a.a.a.a.a.a#s.N#6.N.N.N.N`O.N#``O.N#H.a.a`X#B#V.T#V.T.T#G.1#G`.`.`.`.`.#K`X.a.a.a.a.a.a.a.a.a.a.a.k#g`L.M.7",
"#W#U.n#V#V#B#E.a.a.a.a.a.a.a.a#I.x`O.B`O.N#``O#`#`.B#`.e.6.a.a.J#`.T.T.T.T#G.1#G`.`.`.`..p#4#W.a.a.a.a.a.a.a.a.a.a.a.a...o.M`j#R",
".a#H.T.T.T`f.v.a.a.a.a.a.a.a.a#7#`#`#`#`#`#``p#`#V#`#V#K.a.a.a.s.T.T#G#G.1#G`.`.`.`.`p`b#W.a.a.a.a.a.a.a.a.a.a.a.a.a.a`h.M.g`U#C",
".a.6`p.T.n#V`1.a.a.a.a.a.a.a.a#0`p#V#V`p#V#V#V#V`p.T#``G.a.a`i`f#G.1.1#G`.`.`.`0`p#7#W.a.a.a.a.a.a.a.a.a.a.a.a.a.a.a#3`A.g`U`a#P",
".a#W#s#G.1.T#U.a.a.a.a.a.a.a`d#`.n`p.T.T.n`p.T.T.n.T.x`X.a.a`1.1#G`.#G`.`.`0.N.q#W.a.a.a.a.a.a.a.a.a.a.a.a.a.a.a.a.a`h.g`U`a#P.i",
".a.a#4`.#G.1`f`y.a.a.a.a.a.a#K.T.T#G.T.T#G.T#G#G#G.T#K.a.a.a`v`.`0`..1.T#B#5.a.a.a.a.a.a.a.a.a.a.a.a.a.a.a.a.a.a.a.R#C`a`a`F`F#A",
".a.a`X#0`.`..T`1.a.a.a.a.a#W#6#G#G#G#G#G.1#G#G.1#G.T#5.a.a#4`p#G.T#0.q`X.a.a.a.a.a.a`V#1.a.a.a.a.a.a.a.a.a.a.a.a`B`R`a.c`F`n#2`l",
".a.a.a.J`0`..1`v.a.a.a.a.a#H#G.1`..1.1.1`0.1`.`..1`f#W.a.a#H.e.q`y.a.a.a.a.a.a.a.a#E`g`k.a.a.a.a.a.a.a.a.a.a#W`B.3`a.c`F`n#2`6#J",
".a.a.a#E#B`.`.`p`d.a.a.a.a#B`.`.`0`.`0`.`.`.`.`.`0#U.a.a.a.a.a.a.a.a.a.a.a.a.a.a.a#.``#T.a.a.a.a.a.a.a.a.a`K.R`a.c`F`F`n#k`c.8.a",
".a.a.a.a.v#G.1`.#K.a.a.a.6#`.1`.`.`.`.`.`..1`0`..T.v.a.a.a.a.a.a.a.a.a.a.a.a.a.a#1.b.O#E.a.a.a.a.a.a.a#W#v.E`a.c`F`n#2`6`c.u`i.a",
".a.a.a.a.a#7`.`.`p#Y.a.a.q#G`.`.`.`.`..1`0`.`.`..p.a.a.a.a.a.a.a.a.a.a.a.a.a.a`8.j`s.5.a.a.a.a.a.a.a.I.R`U.c`F`n#2#2`6`c.u.t.a.a",
".a.a.a.a.a`X#c`.`..l#W.a`T`..1`.`0`.`.`.`.`.`..1#n.a.a.a.a.a.a.a.a.a.a.a.a.a#T.D`s#i.f.a.a.a.a#E#v.R`w`a.c`F`n#2`6`6.u.d`J`y.a.a",
".a.a.a.a.a.a#I.B`.#G#4.6#``.`.`.`..1`.`0`.`..1#G#I.a.a.a.a.a.a.a.a.a.a.a.a#E.5#i#i`e#N.a.a`K.X`z`R`U.c.c`F`n#2`6`c.u.d.``i.a.a.a",
".a.a.a.a.a.a.a`d#V`.#0`o#G.1`..1`.`0`.`.`.`.`0.p.a.a.a.a.a.a.a.a.a.a.a.a.a#Q.j`P`e.w`5.X.Y`w`U`U`a.c`F`n#2#2`c`c.d.d#q`Z.a.a.a.a",
".a.a.a.a.a.a.a.a.F.n`.`0`.`.`.`0`.`.`.`..1`.`0#7.a.a.a.a.a.a.a.a.a.a.a.a.z#z`P.w.w`L#u.7`U#C`a`a`F`F`n#2`6`c.u.d`r`r.F#W.a.a.a.a",
".a.a.a.a.a.a.a.a.a`G.T`.`..1`.`.`.`..1`0`.`.#G.6.a.a.a.a.a.a.a.a.a.a.a#3`u`e`e`L`L.M`j.g`U`a#P`F`n`n`6`6`c.u.d`r`r#p#W.a.a.a.a.a",
".a.a.a.a.a.a.a.a.a.a#4#``.`.`.`..1`0`.`.`.`.`T.a.a.a.a.a.a.a.a.a.a.a#r.Q`e.w`L.M`j#R`U#C.c#P`F`n#2`6`c.u.d`r`r.`.F#W.a.a.a.a.a.a",
".a.a.a.a.a.a.a.a.a.a.a`2.x`.`0`.`.`.`.`..1`0`1.a.a.a.a.a.a.a.a.a.a`X`M`e.w`L.M`j.g`U`U.c`F`n#2#2`6`c.u.d`r`r#l.S.a.a.a.a.a.a.a.a",
".a.a.a.a.a.a.a.a.a.a.a.a.6.l`.`.`.`..1`0`.#G.r.a.a.a.a.a.a.a.a.a.a.Y#Z`L.M`j.7`U#C`a#P`F`n#2`6`6.u.d.d`r`r.8`i.a.a.a.a.a.a.a.a.a",
".a.a.a.a.a.a.a.a.a.a.a.a.a#W`1`p.1`.`.`.`.#c.a.a.a.a.a.a.a.a.a.a`5#y`L.M`j.g`U`a.c#P`n`n`6`6`c.u.d`r`r#q.U.r.a.a.a.a.a.a.a.a.a.a",
".a.a.a.a.a.a.a.a.a.a.a.a.a.a.a`i`7`0`.`.`0#H.a.a.a.a.a.a.a.a.a.C#g.M.M#R.g#C`a#P`F`n#2`6`c.u.u`r`r`r`N`i.a.a.a.a.a.a.a.a.a.a.a.a",
".a.a.a.a.a.a.a.a.a.a.a.a.a.a.a.a#W`d#c`.`0.a.a.a.a.a.a.a.a.a.k.m.M.7.g`U`U#P.c`n`n#2`6`6.u.d.d`r`N`2#W.a.a.a.a.a.a.a.a.a.a.a.a.a",
".a.a.a.a.a.a.a.a.a.a.a.a.a.a.a.a.a.a#W#4.J.a.a.a.a.a.a.a.a`X`h.M`j.g`U.3.c`F`F#2#2`6`c.d.d.W`N`i.r.a.a.a.a.a.a.a.a.a.a.a.a.a.a.a",
".a.a.a.a.a.a.a.a.a.a.a.a.a.a.a.a.a.a.a.a.a.a.a.a.a.a.a.a#E.Y`j#R`U.3.c#P`F`n#2`6`c.u#M.8#F`y.a.a.a.a.a.a.a.a.a.a.a.a.a.a.a.a.a.a",
".a.a.a.a.a.a.a.a.a.a.a.a.a.a.a.a.a.a.a.a.a.a.a.a.a.a.a.a.C`w.H`R`R#e#e#k#k`S`m`N.Z`i#W.a.a.a.a.a.a.a.a.a.a.a.a.a.a.a.a.a.a.a.a.a"
};
