/* XPM */
static char *bitcoin32_xpm[] = {
/* width height num_colors chars_per_pixel */
"    32    32      256            2",
/* colors */
"`` c #acce24",
"`. c #acd62c",
"`# c #d4e694",
"`a c #dceea4",
"`b c #f4d61c",
"`c c #f4a61c",
"`d c #fcba74",
"`e c #ecf6d4",
"`f c #f4be1c",
"`g c #c4de64",
"`h c #f4ea24",
"`i c #f4eec4",
"`j c #f4c644",
"`k c #f4faec",
"`l c #f4ca1c",
"`m c #bcd63c",
"`n c #f4d65c",
"`o c #fcd6a4",
"`p c #cce27c",
"`q c #e4eebc",
"`r c #f4b224",
"`s c #f4ce64",
"`t c #f4fadc",
"`u c #fcf6b4",
"`v c #bcda54",
"`w c #f4e224",
"`x c #f4ea54",
"`y c #fcfeec",
"`z c #f4ca34",
"`A c #fcce9c",
"`B c #b4ce24",
"`C c #dce694",
"`D c #f4d634",
"`E c #fcf2dc",
"`F c #f4be3c",
"`G c #f4d21c",
"`H c #fce29c",
"`I c #d4e284",
"`J c #fcfac4",
"`K c #f4ae44",
"`L c #f4c61c",
"`M c #f4ea44",
"`N c #fcf6ec",
"`O c #f4e264",
"`P c #ecf6cc",
"`Q c #c4da54",
"`R c #b4de54",
"`S c #e4eeac",
"`T c #f4de24",
"`U c #f4ae24",
"`V c #ccde6c",
"`W c #f4ce4c",
"`X c #f4ce2c",
"`Y c #bcda4c",
"`Z c #ecf2c4",
"`0 c #f4ba1c",
"`1 c #fcce84",
"`2 c #fcfabc",
"`3 c #b4d234",
"`4 c #dceaa4",
"`5 c #fce2bc",
"`6 c #d4e68c",
"`7 c #fcfafc",
"`8 c #c4de54",
".` c #b4d634",
".. c #f4da24",
".# c #f4a62c",
".a c #f4f6d4",
".b c #f4c224",
".c c #f4ee24",
".d c #fceecc",
".e c #f4ce1c",
".f c #bcda44",
".g c #f4b61c",
".h c #fcfedc",
".i c #fcfaac",
".j c #f4f27c",
".k c #fcfefc",
".l c #fccea4",
".m c #b4d224",
".n c #dcea94",
".o c #fcf6dc",
".p c #d4e67c",
".q c #fcfaec",
".r c #f4de7c",
".s c #cce26c",
".t c #fceabc",
".u c #acd224",
".v c #d4ea94",
".w c #dceeac",
".x c #f4d624",
".y c #f4aa24",
".z c #f4c26c",
".A c #f4be24",
".B c #f4c65c",
".C c #bcd644",
".D c #f4da6c",
".E c #fcdea4",
".F c #cce67c",
".G c #e4f2bc",
".H c #f4d26c",
".I c #f4fae4",
".J c #f4e624",
".K c #fcfef4",
".L c #f4d23c",
".M c #fcd294",
".N c #f4de44",
".O c #f4d224",
".P c #fcfacc",
".Q c #f4c62c",
".R c #f4ee3c",
".S c #c4da5c",
".T c #e4eeb4",
".U c #f4ce54",
".V c #ecf2cc",
".W c #fcd284",
".X c #fce2c4",
".Y c #c4de5c",
".Z c #b4d63c",
".0 c #f4f6dc",
".1 c #f4ee2c",
".2 c #fcf2cc",
".3 c #f4ce24",
".4 c #f4b624",
".5 c #fcfab4",
".6 c #f4f674",
".7 c #b4d22c",
".8 c #dcea9c",
"#` c #fcf6e4",
"#. c #fcde7c",
"## c #d4e684",
"#a c #fcfaf4",
"#b c #cce274",
"#c c #000000",
"#d c #000000",
"#e c #000000",
"#f c #000000",
"#g c #000000",
"#h c #000000",
"#i c #000000",
"#j c #000000",
"#k c #000000",
"#l c #000000",
"#m c #000000",
"#n c #000000",
"#o c #000000",
"#p c #000000",
"#q c #000000",
"#r c #000000",
"#s c #000000",
"#t c #000000",
"#u c #000000",
"#v c #000000",
"#w c #000000",
"#x c #000000",
"#y c #000000",
"#z c #000000",
"#A c #000000",
"#B c #000000",
"#C c #000000",
"#D c #000000",
"#E c #000000",
"#F c #000000",
"#G c #000000",
"#H c #000000",
"#I c #000000",
"#J c #000000",
"#K c #000000",
"#L c #000000",
"#M c #000000",
"#N c #000000",
"#O c #000000",
"#P c #000000",
"#Q c #000000",
"#R c #000000",
"#S c #000000",
"#T c #000000",
"#U c #000000",
"#V c #000000",
"#W c #000000",
"#X c #000000",
"#Y c #000000",
"#Z c #000000",
"#0 c #000000",
"#1 c #000000",
"#2 c #000000",
"#3 c #000000",
"#4 c #000000",
"#5 c #000000",
"#6 c #000000",
"#7 c #000000",
"#8 c #000000",
"a` c #000000",
"a. c #000000",
"a# c #000000",
"aa c #000000",
"ab c #000000",
"ac c #000000",
"ad c #000000",
"ae c #000000",
"af c #000000",
"ag c #000000",
"ah c #000000",
"ai c #000000",
"aj c #000000",
"ak c #000000",
"al c #000000",
"am c #000000",
"an c #000000",
"ao c #000000",
"ap c #000000",
"aq c #000000",
"ar c #000000",
"as c #000000",
"at c #000000",
"au c #000000",
"av c #000000",
"aw c #000000",
"ax c #000000",
"ay c #000000",
"az c #000000",
"aA c #000000",
"aB c #000000",
"aC c #000000",
"aD c #000000",
"aE c #000000",
"aF c #000000",
"aG c #000000",
"aH c #000000",
"aI c #000000",
"aJ c #000000",
"aK c #000000",
"aL c #000000",
"aM c #000000",
"aN c #000000",
"aO c #000000",
"aP c #000000",
"aQ c #000000",
"aR c #000000",
"aS c #000000",
"aT c #000000",
"aU c #000000",
"aV c #000000",
"aW c #000000",
"aX c #000000",
"aY c #000000",
"aZ c #000000",
"a0 c #000000",
"a1 c #000000",
"a2 c #000000",
"a3 c #000000",
"a4 c #000000",
"a5 c #000000",
"a6 c #000000",
"a7 c #000000",
"a8 c #000000",
/* pixels */
".k.k.k.k.k.k.k.k.k.k.k.k.k#a`t`e`Z.w`4`4.T`Z.I.k.k.k.k.k.k.k.k.k",
".k.k.k.k.k.k.k.k.k.k.k.I`P.G.T`S`4.n`6##`p#b`V##.V.K.k.k.k.k.k.k",
".k.k.k.k.k.k.k.k.k.q`t.a`e`Z.G.T`4.8.v`6.p#b`g`g`v##.q.k.k.k.k.k",
".k.k.k.k.k.k.k.K.q.q`k.0`e.V`Z`q.T`S`C`6`p`p`V.Y`Q`Y`g.q.k.k.k.k",
".k.k.k.k.k.k.q.K.k.K.q.I.I.I.q.K.k.K.0.G`C`p.s`g`Q`Y.C`p.K.k.k.k",
".k.k.k.k.K.0.I.K.k.K`7.k.k.k.k.k.k.k.k.k.K`S#b.Y`v`Y.C.`.T.k.k.k",
".k.k.k.q.V.0`t`k#a.k.k.k.k.k.k.k.k.k.k.k.k.k.G`V`Q`Y`m`3`Q`k.k.k",
".k.k.K`Z`P`P.0#a.k.k.k.k.k.K.K.q.0`P.I.k.k.k.k`6`v.C.C`3.u.T.k.k",
".k.k.V.G`q.V.I.k.k.k.q.I.a`Z.T.w`4.n.0.k.k.k.k`4`Q.C.Z`3.m`6.k.k",
".k.I`a.T.T.a.k.k.k.K.a.G.G.T.T`4.8.G.K.k.k.k.k.n`Y.f`m.7``##.k.k",
".k.T`4`S.G.k.k.k.k.k.k.V.T`S`4.8.v.V.k.q.k.k.q`g`Y.C.`.u```C.k.k",
".q`6.n`4.0.k.k.k.k.k.k`Z`4`4.8.v`4.q`k.8`Z.q.v`Q.C.Z`3`B``.G.k.k",
"`Z`6`6`S.k.k.k.k.k.k.I`4.8.n`#`6.T.k`Z`V`g.v.S`Y.Z.`.7``.``k.k.k",
".w`I`6`e.k.k.k.k.k.k.V.n`#`6`6##`P.k.8`g`g`Q`v.C`m`3``.u.F.k.k.k",
"`6#b###a.k.k.k.k.k.q.8`6####.p`6.q.I`p.Y`Q`Y.C.Z`3.7``.m`i`7.k.k",
"#b`V`6.k.k.k.k.k.k`e##`p`I#b#b.w.k.T.Y`Q`v.C`m.`.7``.u.F`N.l`7.k",
"`V`g`6.k.k.k.k.k.K`4#b#b.s`V`g.V.k`6`Q`Y.C.C.``3.u```Y.q.k`d`A.k",
"#b`Q`6.k.k.k.k.k.I#b`V`V`g`g`p`y.0`g`Y.C`m`3.7.u``.C`P.k.k.X.#`E",
"`6`Y`I.k.k.k.k.k`Z.S.Y.S.Y`Q`4.k`4.f.C.Z`3.7.u```Q`Z.k.k.k`N`c.W",
"`4.C`g.k.k.k.k.q##`v`Q`Y`Y.S`e.K#b.Z`3`3.7````##`t.k.k.k.k#`.4`j",
"`P.Z`Q.K.k.k.k.0`Y.C.f.C.C#b.K.V.C`3.7``.u`R`S.K.k.k.k.k.k.t`0`j",
"#a.C.Z.V.k.k.k`S.Z`m`3`m`3.8.k`6.7``.m`v`a`E.k.k.k.k.k.k.k.U`L.L",
".k.n.u`#.k.k.q.Y`3`3`3.7.C`P.0`v`3##.G.I.k#a.k.k.k.k.k.k#.`l.3`O",
".k`k`3`m.k.k.V.u``.u.u``.Y.k`k`Z.0`k.k.k`5`o#a.k.k.k.k#.`X`G`T`u",
".k.k.8``.T.k.n``.u`B````##.k.k.k.k.k.k`N`K.M.k.k.k`E`n`G.x`T`M`y",
".k.k.q`g.Z.0.S``````.u`m`Z.k.k.k.k.k#a.z`c.d.k.t.D.L`G..`w`h`J.k",
".k.k.k.I`Q.7.u``.u`````Q.K.k.k.k.k.k`1.y.4`s.U`X.e`b`T.J.c.i.k.k",
".k.k.k.k.0`g`````B``.m`6.k.k.k.k.k.E`r.g`0.b`l.O..`w`h.c.5.K.k.k",
".k.k.k.k.k.I.s``.u``.``Z.k.k.k.k.d`F.g.A`l.3`b`T.J`h.R.5.k.k.k.k",
".k.k.k.k.k.k.K.8.7```Q.k.k.k.k#`.B`0`L`l.O..`w.J.c.6.P.k.k.k.k.k",
".k.k.k.k.k.k.k.k.I`C`a.k.k.k#a.H`f`L.3`b...J.c.j`J.K.k.k.k.k.k.k",
".k.k.k.k.k.k.k.k.k.k.k.k.k.k`H.Q`X`D.N`x.j`u`y.K.k.k.k.k.k.k.k.k"
};
